<svg id="Layer_1" data-name="Layer 1" xmlns="http://www.w3.org/2000/svg" viewBox="0 0 1052.01 259.19"><defs><style>.cls-1{fill:#231f20;}</style></defs><title>01-09_allpage. [Converted]</title><path class="cls-1" d="M558.82,14.82c-18.37,0-33.49-12.64-33.49-32.63S540.45-50,558.82-50c18.69,0,33.82,12.21,33.82,32.2S577.51,14.82,558.82,14.82Zm0-49.16c-9.4,0-15.56,7.35-15.56,16.53,0,9.4,6.16,16.75,15.56,16.75,9.62,0,15.77-7.35,15.77-16.75C574.6-27,568.33-34.34,558.82-34.34Z" transform="translate(393.1 50.06)"/><path class="cls-1" d="M629.42,30.55c-13.94,0-25.5-7.35-29.06-19.45L616.88,6A12.8,12.8,0,0,0,629.2,15.2c6.16,0,11.45-3.78,11.45-11.13C640.65-5,632.44-7.59,625-7.59a63.14,63.14,0,0,0-18.69,3.35L608.13-48H655v15.56H624.23l-.65,12.1a36.93,36.93,0,0,1,7.67-.76c15.34,0,27.66,8.21,27.66,24.31C658.91,21.8,644.43,30.55,629.42,30.55Z" transform="translate(393.1 50.06)"/><path class="cls-1" d="M-359.6,14.82c-18.37,0-33.49-12.64-33.49-32.63S-378-50-359.6-50c18.69,0,33.82,12.21,33.82,32.2S-340.91,14.82-359.6,14.82Zm0-49.16c-9.4,0-15.56,7.35-15.56,16.53,0,9.4,6.16,16.75,15.56,16.75,9.62,0,15.77-7.35,15.77-16.75C-343.83-27-350.1-34.34-359.6-34.34Z" transform="translate(393.1 50.06)"/><path class="cls-1" d="M-291.82,28.49V-27.69l-14.26,11-9.4-12.86L-290.31-48h16.64v76.5Z" transform="translate(393.1 50.06)"/><path class="cls-1" d="M-359.6,193.4c-18.37,0-33.49-12.64-33.49-32.63s15.13-32.2,33.49-32.2c18.69,0,33.82,12.21,33.82,32.2S-340.91,193.4-359.6,193.4Zm0-49.16c-9.4,0-15.56,7.35-15.56,16.53,0,9.4,6.16,16.75,15.56,16.75,9.62,0,15.77-7.35,15.77-16.75C-343.83,151.59-350.1,144.24-359.6,144.24Z" transform="translate(393.1 50.06)"/><path class="cls-1" d="M-287.61,209.13c-16.64,0-30.15-10.59-30.15-27.34,0-9.08,3.46-16.1,8.54-23.66l18.48-27.55h21.93l-18.8,26.15-.32.54a17.13,17.13,0,0,1,5.4-.86c13.4,0,25.07,10,25.07,25C-257.46,198.76-271.07,209.13-287.61,209.13Zm.11-39.33c-7.13,0-12.1,5-12.1,12.1a11.72,11.72,0,0,0,12,12.1c7.13,0,12-5,12-12.21C-275.61,174.88-280.37,169.8-287.5,169.8Z" transform="translate(393.1 50.06)"/><path class="cls-1" d="M-130,14.82c-18.37,0-33.49-12.64-33.49-32.63S-148.37-50-130-50c18.69,0,33.82,12.21,33.82,32.2S-111.31,14.82-130,14.82Zm0-49.16c-9.4,0-15.56,7.35-15.56,16.53,0,9.4,6.16,16.75,15.56,16.75,9.62,0,15.77-7.35,15.77-16.75C-114.22-27-120.49-34.34-130-34.34Z" transform="translate(393.1 50.06)"/><path class="cls-1" d="M-85.44,28.49V13.37l29.82-27c3.78-3.57,6.27-7.13,6.27-11.78,0-5.4-3.78-9.18-9.51-9.18-6.05,0-10,4.75-10.8,11.56l-17.4-2.38c1.73-15.45,14.26-24.63,29.17-24.63,14,0,27.66,7.46,27.66,23.45,0,10.91-6.37,17.29-13.4,23.55L-61.35,12.72h31.23V28.49Z" transform="translate(393.1 50.06)"/><path class="cls-1" d="M-130,193.4c-18.37,0-33.49-12.64-33.49-32.63s15.13-32.2,33.49-32.2c18.69,0,33.82,12.21,33.82,32.2S-111.31,193.4-130,193.4Zm0-49.16c-9.4,0-15.56,7.35-15.56,16.53,0,9.4,6.16,16.75,15.56,16.75,9.62,0,15.77-7.35,15.77-16.75C-114.22,151.59-120.49,144.24-130,144.24Z" transform="translate(393.1 50.06)"/><path class="cls-1" d="M-59.73,207.08H-80.8l31-60.94H-86V130.58h55.54v14.48Z" transform="translate(393.1 50.06)"/><path class="cls-1" d="M99.61,14.82c-18.37,0-33.49-12.64-33.49-32.63S81.24-50,99.61-50c18.69,0,33.82,12.21,33.82,32.2S118.3,14.82,99.61,14.82Zm0-49.16C90.21-34.34,84-27,84-17.81c0,9.4,6.16,16.75,15.56,16.75,9.62,0,15.77-7.35,15.77-16.75C115.38-27,109.12-34.34,99.61-34.34Z" transform="translate(393.1 50.06)"/><path class="cls-1" d="M171,30.55c-13.94,0-26.58-6.05-30.68-20.31L157.13,5.8a13.06,13.06,0,0,0,13,9.51c5.19,0,11.13-2.59,11.13-9.72,0-7.78-8-10-15.56-10H160.8V-17.75h5.29c6.81,0,13.4-1.73,13.4-9.08,0-5.51-4.65-8.43-9.62-8.43a10.53,10.53,0,0,0-10.48,8.54l-16.86-3.89c3.67-12.86,15.77-19.45,28.52-19.45,13.51,0,26.9,6.91,26.9,21.61a16.79,16.79,0,0,1-12.86,16.64v.32c8.64,2.05,14.69,9.18,14.69,17.72C199.81,23,185,30.55,171,30.55Z" transform="translate(393.1 50.06)"/><path class="cls-1" d="M99.61,193.4c-18.37,0-33.49-12.64-33.49-32.63s15.13-32.2,33.49-32.2c18.69,0,33.82,12.21,33.82,32.2S118.3,193.4,99.61,193.4Zm0-49.16c-9.4,0-15.56,7.35-15.56,16.53,0,9.4,6.16,16.75,15.56,16.75,9.62,0,15.77-7.35,15.77-16.75C115.38,151.59,109.12,144.24,99.61,144.24Z" transform="translate(393.1 50.06)"/><path class="cls-1" d="M171.71,209.13c-15.13,0-28.74-7.67-28.74-23.77,0-9.29,6.27-15.88,13.72-18.26v-.22c-6.59-2.49-11.67-8.1-11.67-16.53,0-14.15,12.53-21.83,26.69-21.83s26.69,7.35,26.69,21.5c0,8.43-4.86,14.48-11.67,16.75v.32a18.79,18.79,0,0,1,13.72,18.15C200.46,201.35,186.84,209.13,171.71,209.13Zm0-34.9c-6.27,0-10.7,4.43-10.7,10.37,0,6.16,4.43,10.16,10.7,10.16s10.59-4,10.59-10.16A10.23,10.23,0,0,0,171.71,174.23Zm0-31.66c-5.4,0-9.08,3.78-9.08,8.75a8.8,8.8,0,0,0,9.08,9.08,9.08,9.08,0,0,0,9.18-9.08A8.88,8.88,0,0,0,171.71,142.57Z" transform="translate(393.1 50.06)"/><path class="cls-1" d="M329.21,14.82c-18.37,0-33.49-12.64-33.49-32.63S310.85-50,329.21-50C347.91-50,363-37.8,363-17.81S347.91,14.82,329.21,14.82Zm0-49.16c-9.4,0-15.56,7.35-15.56,16.53,0,9.4,6.16,16.75,15.56,16.75,9.62,0,15.77-7.35,15.77-16.75C345-27,338.72-34.34,329.21-34.34Z" transform="translate(393.1 50.06)"/><path class="cls-1" d="M422.07,13.58V28.49h-17V13.58h-36V-1.65L400.24-48H422V-1.11h10.59V13.58Zm-16.86-43h-.32L386.73-1.11h18.48Z" transform="translate(393.1 50.06)"/><path class="cls-1" d="M329.21,193.4c-18.37,0-33.49-12.64-33.49-32.63s15.13-32.2,33.49-32.2c18.69,0,33.82,12.21,33.82,32.2S347.91,193.4,329.21,193.4Zm0-49.16c-9.4,0-15.56,7.35-15.56,16.53,0,9.4,6.16,16.75,15.56,16.75,9.62,0,15.77-7.35,15.77-16.75C345,151.59,338.72,144.24,329.21,144.24Z" transform="translate(393.1 50.06)"/><path class="cls-1" d="M422.93,179.53l-18.48,27.55H382.52l19-26.36.22-.32a17.68,17.68,0,0,1-5.4.86c-13.4,0-25.17-10-25.17-25,0-17.4,13.61-27.77,30.15-27.77,16.75,0,30.15,10.59,30.15,27.34C431.47,164.94,428,172,422.93,179.53Zm-21.5-36.09c-7.24,0-12.1,5.08-12.1,12.32,0,6.92,4.75,12,11.88,12s12.1-5,12.1-12.1C413.31,149.06,408.67,143.44,401.43,143.44Z" transform="translate(393.1 50.06)"/></svg>