<?xml version="1.0" encoding="utf-8"?>
<!-- Generator: Adobe Illustrator 16.0.0, SVG Export Plug-In . SVG Version: 6.00 Build 0)  -->
<!DOCTYPE svg PUBLIC "-//W3C//DTD SVG 1.1//EN" "http://www.w3.org/Graphics/SVG/1.1/DTD/svg11.dtd">
<svg version="1.1" xmlns="http://www.w3.org/2000/svg" xmlns:xlink="http://www.w3.org/1999/xlink" x="0px" y="0px" width="612px"
	 height="792px" viewBox="0 0 612 792" enable-background="new 0 0 612 792" xml:space="preserve">
<g id="Layer_1" display="none">
	<title>01-09_allpage. [Converted]</title>
	<path display="inline" d="M553.773,358.353c-10.687,0-19.482-7.354-19.482-18.982s8.796-18.726,19.482-18.726
		c10.873,0,19.675,7.103,19.675,18.732S564.646,358.353,553.773,358.353z M553.773,329.754c-5.469,0-9.052,4.276-9.052,9.616
		c0,5.468,3.583,9.744,9.052,9.744c5.597,0,9.174-4.276,9.174-9.744C562.953,334.024,559.306,329.754,553.773,329.754z"/>
	<path display="inline" d="M594.845,367.503c-8.109,0-14.835-4.276-16.905-11.315l9.61-2.967c0.932,3.18,3.853,5.361,7.167,5.352
		c3.583,0,6.66-2.199,6.66-6.475c0-5.276-4.775-6.783-9.104-6.783c-3.702,0.098-7.368,0.755-10.873,1.949l1.059-25.458h27.267v9.052
		h-17.9l-0.378,7.039c1.468-0.303,2.963-0.451,4.462-0.442c8.924,0,16.091,4.776,16.091,14.143
		C612,362.413,603.576,367.503,594.845,367.503z"/>
	<path display="inline" d="M144.819,201.625c-10.687,0-19.482-7.354-19.482-18.982s8.778-18.726,19.482-18.726
		c10.873,0,19.675,7.103,19.675,18.732S155.692,201.625,144.819,201.625z M144.819,173.026c-5.468,0-9.052,4.276-9.052,9.616
		c0,5.468,3.583,9.744,9.052,9.744c5.597,0,9.174-4.276,9.174-9.744C153.993,177.296,150.346,173.026,144.819,173.026z"/>
	<path display="inline" d="M184.25,209.577v-32.682l-8.295,6.399l-5.469-7.481l14.643-10.733h9.68v44.503L184.25,209.577z"/>
	<path display="inline" d="M19.488,462.24c-10.687,0-19.482-7.354-19.482-18.982s8.802-18.732,19.482-18.732
		c10.873,0,19.675,7.104,19.675,18.732S30.361,462.24,19.488,462.24z M19.488,433.642c-5.468,0-9.052,4.276-9.052,9.616
		c0,5.469,3.583,9.744,9.052,9.744c5.597,0,9.174-4.275,9.174-9.744C28.663,437.918,25.015,433.642,19.488,433.642L19.488,433.642z"
		/>
	<path display="inline" d="M61.368,471.391c-9.68,0-17.54-6.16-17.54-15.904c0-5.282,2.013-9.366,4.968-13.765l10.75-16.026h12.757
		l-10.937,15.212l-0.186,0.314c1.014-0.334,2.074-0.503,3.141-0.5c7.795,0,14.584,5.817,14.584,14.543
		C78.908,465.358,70.99,471.391,61.368,471.391z M61.432,448.511c-4.148,0-7.039,2.909-7.039,7.039
		c-0.123,3.764,2.828,6.915,6.591,7.038c0.13,0.004,0.26,0.005,0.39,0.001c4.148,0,6.981-2.908,6.981-7.103
		C68.349,451.467,65.58,448.511,61.432,448.511z"/>
	<path display="inline" d="M153.057,358.353c-10.687,0-19.482-7.354-19.482-18.982s8.796-18.726,19.482-18.726
		c10.873,0,19.675,7.103,19.675,18.732S163.93,358.353,153.057,358.353z M153.057,329.754c-5.468,0-9.052,4.276-9.052,9.616
		c0,5.468,3.583,9.744,9.052,9.744c5.597,0,9.174-4.276,9.174-9.744C162.237,334.024,158.589,329.754,153.057,329.754z"/>
	<path display="inline" d="M178.979,366.305v-8.796l17.348-15.707c2.199-2.077,3.647-4.148,3.647-6.853
		c0-3.141-2.199-5.34-5.532-5.34c-3.52,0-5.817,2.763-6.283,6.725l-10.123-1.385c1.006-8.988,8.296-14.328,16.97-14.328
		c8.145,0,16.091,4.34,16.091,13.642c0,6.347-3.706,10.058-7.795,13.7l-10.308,9.168h18.167v9.174H178.979z"/>
	<path display="inline" d="M153.057,462.24c-10.687,0-19.482-7.354-19.482-18.982s8.802-18.732,19.482-18.732
		c10.873,0,19.675,7.104,19.675,18.732S163.93,462.24,153.057,462.24z M153.057,433.642c-5.468,0-9.052,4.276-9.052,9.616
		c0,5.469,3.583,9.744,9.052,9.744c5.597,0,9.174-4.275,9.174-9.744C162.237,437.918,158.589,433.642,153.057,433.642
		L153.057,433.642z"/>
	<path display="inline" d="M193.936,470.198h-12.257l18.034-35.451h-21.059v-9.052h32.31v8.424L193.936,470.198z"/>
	<path display="inline" d="M286.631,358.353c-10.687,0-19.482-7.354-19.482-18.982s8.796-18.726,19.482-18.726
		c10.873,0,19.675,7.103,19.675,18.732S297.504,358.353,286.631,358.353z M286.631,329.754c-5.468,0-9.081,4.27-9.081,9.616
		c0,5.468,3.583,9.744,9.052,9.744c5.597,0,9.174-4.276,9.174-9.744C295.805,334.024,292.163,329.754,286.631,329.754z"/>
	<path display="inline" d="M328.161,367.503c-8.109,0-15.462-3.52-17.848-11.815l9.779-2.583c0.948,3.364,4.069,5.647,7.563,5.533
		c3.02,0,6.475-1.507,6.475-5.655c0-4.526-4.653-5.817-9.052-5.817h-2.851v-7.76h3.077c3.962,0,7.796-1.007,7.796-5.282
		c0-3.206-2.705-4.904-5.597-4.904c-2.967-0.04-5.536,2.054-6.097,4.968l-9.808-2.263c2.135-7.481,9.174-11.315,16.591-11.315
		c7.859,0,15.649,4.02,15.649,12.572c0.086,4.582-3.025,8.608-7.481,9.68v0.186c5.026,1.192,8.546,5.34,8.546,10.309
		C344.922,363.111,336.306,367.503,328.161,367.503z"/>
	<path display="inline" d="M286.631,462.24c-10.687,0-19.482-7.354-19.482-18.982s8.802-18.732,19.482-18.732
		c10.873,0,19.675,7.104,19.675,18.732S297.504,462.24,286.631,462.24z M286.631,433.642c-5.468,0-9.052,4.276-9.052,9.616
		c0,5.469,3.583,9.744,9.052,9.744c5.596,0,9.174-4.275,9.174-9.744C295.805,437.918,292.163,433.642,286.631,433.642
		L286.631,433.642z"/>
	<path display="inline" d="M328.574,471.391c-8.802,0-16.719-4.462-16.719-13.827c0-5.405,3.647-9.238,7.981-10.623v-0.128
		c-3.834-1.448-6.789-4.712-6.789-9.616c0-8.231,7.289-12.699,15.526-12.699c8.238,0,15.527,4.275,15.527,12.507
		c0,4.904-2.827,8.424-6.789,9.744v0.187c4.731,1.326,7.996,5.646,7.981,10.559C345.3,466.865,337.376,471.391,328.574,471.391z
		 M328.574,451.088c-3.647,0-6.225,2.577-6.225,6.033c0,3.583,2.577,5.91,6.225,5.91s6.161-2.327,6.161-5.91
		c0.047-3.287-2.579-5.989-5.865-6.036C328.771,451.084,328.673,451.085,328.574,451.088z M328.574,432.67
		c-3.141,0-5.282,2.199-5.282,5.091c-0.091,2.825,2.126,5.19,4.951,5.282c0.11,0.003,0.221,0.003,0.331,0
		c2.918,0.032,5.309-2.307,5.341-5.224c0-0.02,0-0.039,0-0.059c-0.04-2.854-2.386-5.133-5.238-5.093
		C328.643,432.668,328.608,432.669,328.574,432.67z"/>
	<path display="inline" d="M420.199,358.353c-10.687,0-19.482-7.354-19.482-18.982s8.802-18.726,19.482-18.726
		c10.879,0,19.657,7.097,19.657,18.726S431.078,358.353,420.199,358.353z M420.199,329.754c-5.469,0-9.052,4.276-9.052,9.616
		c0,5.468,3.583,9.744,9.052,9.744c5.597,0,9.174-4.276,9.174-9.744C429.385,334.024,425.731,329.754,420.199,329.754z"/>
	<path display="inline" d="M474.22,357.631v8.674h-9.89v-8.674h-20.942v-8.86l18.133-26.964h12.658v27.278h6.161v8.545H474.22z
		 M464.412,332.616h-0.187l-10.564,16.469h10.751V332.616z"/>
	<path display="inline" d="M420.199,462.24c-10.687,0-19.482-7.354-19.482-18.982s8.802-18.732,19.482-18.732
		c10.873,0,19.675,7.104,19.675,18.732S431.078,462.24,420.199,462.24z M420.199,433.642c-5.469,0-9.052,4.276-9.052,9.616
		c0,5.469,3.583,9.744,9.052,9.744c5.597,0,9.174-4.275,9.174-9.744C429.385,437.918,425.731,433.642,420.199,433.642
		L420.199,433.642z"/>
	<path display="inline" d="M474.72,454.172l-10.75,16.026h-12.758l11.053-15.335l0.128-0.186c-1.015,0.328-2.074,0.497-3.141,0.5
		c-7.796,0-14.643-5.817-14.643-14.544c0-10.122,7.917-16.154,17.539-16.154c9.744,0,17.54,6.16,17.54,15.904
		C479.688,445.684,477.67,449.791,474.72,454.172z M462.213,433.177c-4.212,0-7.039,2.955-7.039,7.167
		c0,4.025,2.763,6.98,6.911,6.98c4.147,0,7.039-2.908,7.039-7.039C469.124,436.445,466.425,433.177,462.213,433.177z"/>
</g>
<g id="图层_2" display="none">
	<path display="inline" d="M289.819,410.625c-10.687,0-19.482-7.354-19.482-18.982s8.778-18.726,19.482-18.726
		c10.873,0,19.675,7.103,19.675,18.732S300.692,410.625,289.819,410.625z M289.819,382.026c-5.468,0-9.052,4.276-9.052,9.616
		c0,5.469,3.583,9.744,9.052,9.744c5.597,0,9.174-4.275,9.174-9.744C298.993,386.296,295.346,382.026,289.819,382.026z"/>
	<path display="inline" d="M329.25,418.577v-32.682l-8.296,6.399l-5.469-7.481l14.643-10.733h9.681v44.503L329.25,418.577z"/>
</g>
<g id="图层_3" display="none">
	<path display="inline" d="M286.057,411.353c-10.687,0-19.482-7.354-19.482-18.982s8.796-18.726,19.482-18.726
		c10.873,0,19.675,7.103,19.675,18.732S296.93,411.353,286.057,411.353z M286.057,382.754c-5.468,0-9.052,4.276-9.052,9.616
		c0,5.468,3.583,9.744,9.052,9.744c5.597,0,9.174-4.276,9.174-9.744C295.237,387.024,291.589,382.754,286.057,382.754z"/>
	<path display="inline" d="M311.979,419.305v-8.796l17.348-15.707c2.199-2.077,3.648-4.148,3.648-6.853
		c0-3.141-2.199-5.34-5.533-5.34c-3.52,0-5.816,2.763-6.282,6.725l-10.122-1.385c1.006-8.988,8.295-14.328,16.969-14.328
		c8.145,0,16.092,4.34,16.092,13.642c0,6.347-3.706,10.058-7.796,13.7l-10.308,9.168h18.167v9.174H311.979z"/>
</g>
<g id="图层_4" display="none">
	<path display="inline" d="M285.631,410.353c-10.687,0-19.482-7.354-19.482-18.982s8.796-18.726,19.482-18.726
		c10.873,0,19.675,7.103,19.675,18.732S296.504,410.353,285.631,410.353z M285.631,381.754c-5.468,0-9.081,4.27-9.081,9.616
		c0,5.468,3.583,9.744,9.052,9.744c5.597,0,9.174-4.276,9.174-9.744C294.805,386.024,291.163,381.754,285.631,381.754z"/>
	<path display="inline" d="M327.161,419.504c-8.109,0-15.462-3.52-17.848-11.816l9.779-2.582c0.948,3.363,4.069,5.646,7.563,5.532
		c3.02,0,6.475-1.507,6.475-5.655c0-4.525-4.653-5.816-9.052-5.816h-2.851v-7.761h3.077c3.962,0,7.796-1.007,7.796-5.282
		c0-3.206-2.705-4.904-5.597-4.904c-2.967-0.04-5.536,2.054-6.097,4.968l-9.808-2.263c2.135-7.481,9.174-11.315,16.591-11.315
		c7.859,0,15.649,4.02,15.649,12.572c0.086,4.582-3.025,8.608-7.481,9.68v0.186c5.026,1.192,8.546,5.34,8.546,10.309
		C343.922,415.111,335.306,419.504,327.161,419.504z"/>
</g>
<g id="图层_5" display="none">
	<path display="inline" d="M285.199,411.353c-10.687,0-19.482-7.354-19.482-18.982s8.802-18.726,19.482-18.726
		c10.879,0,19.657,7.097,19.657,18.726S296.078,411.353,285.199,411.353z M285.199,382.754c-5.469,0-9.052,4.276-9.052,9.616
		c0,5.468,3.583,9.744,9.052,9.744c5.597,0,9.174-4.276,9.174-9.744C294.385,387.024,290.731,382.754,285.199,382.754z"/>
	<path display="inline" d="M339.22,410.631v8.674h-9.89v-8.674h-20.942v-8.859l18.133-26.964h12.658v27.279h6.161v8.545H339.22z
		 M329.412,385.616h-0.187l-10.564,16.47h10.751V385.616z"/>
</g>
<g id="图层_6" display="none">
	<path display="inline" d="M285.773,410.353c-10.687,0-19.482-7.354-19.482-18.982s8.796-18.726,19.482-18.726
		c10.873,0,19.675,7.103,19.675,18.732S296.646,410.353,285.773,410.353z M285.773,381.754c-5.469,0-9.052,4.276-9.052,9.616
		c0,5.468,3.583,9.744,9.052,9.744c5.597,0,9.174-4.276,9.174-9.744C294.953,386.024,291.306,381.754,285.773,381.754z"/>
	<path display="inline" d="M326.845,419.504c-8.109,0-14.835-4.276-16.905-11.315l9.61-2.967c0.932,3.18,3.853,5.361,7.167,5.353
		c3.583,0,6.66-2.199,6.66-6.476c0-5.276-4.775-6.783-9.104-6.783c-3.702,0.099-7.368,0.755-10.873,1.949l1.059-25.458h27.267v9.052
		h-17.9l-0.378,7.039c1.468-0.303,2.963-0.451,4.462-0.442c8.924,0,16.091,4.776,16.091,14.143
		C344,414.413,335.576,419.504,326.845,419.504z"/>
</g>
<g id="图层_7" display="none">
	<path display="inline" d="M285.488,410.24c-10.687,0-19.482-7.354-19.482-18.982s8.802-18.732,19.482-18.732
		c10.873,0,19.675,7.104,19.675,18.732S296.361,410.24,285.488,410.24z M285.488,381.642c-5.468,0-9.052,4.276-9.052,9.616
		c0,5.469,3.583,9.744,9.052,9.744c5.597,0,9.174-4.275,9.174-9.744C294.663,385.918,291.015,381.642,285.488,381.642
		L285.488,381.642z"/>
	<path display="inline" d="M327.368,419.391c-9.681,0-17.54-6.16-17.54-15.904c0-5.282,2.014-9.366,4.969-13.765l10.75-16.026
		h12.758l-10.937,15.212l-0.187,0.314c1.014-0.334,2.074-0.503,3.142-0.5c7.796,0,14.585,5.817,14.585,14.543
		C344.908,413.358,336.99,419.391,327.368,419.391z M327.432,396.511c-4.147,0-7.039,2.909-7.039,7.039
		c-0.123,3.764,2.828,6.915,6.592,7.038c0.13,0.004,0.26,0.005,0.39,0.001c4.147,0,6.981-2.908,6.981-7.103
		C334.35,399.467,331.58,396.511,327.432,396.511z"/>
</g>
<g id="图层_8" display="none">
	<path display="inline" d="M286.057,411.24c-10.687,0-19.482-7.354-19.482-18.982s8.802-18.732,19.482-18.732
		c10.873,0,19.675,7.104,19.675,18.732S296.93,411.24,286.057,411.24z M286.057,382.642c-5.468,0-9.052,4.276-9.052,9.616
		c0,5.469,3.583,9.744,9.052,9.744c5.597,0,9.174-4.275,9.174-9.744C295.237,386.918,291.589,382.642,286.057,382.642
		L286.057,382.642z"/>
	<path display="inline" d="M326.936,419.198h-12.257l18.034-35.451h-21.06v-9.052h32.31v8.424L326.936,419.198z"/>
</g>
<g id="图层_9">
	<path d="M285.631,410.24c-10.687,0-19.482-7.354-19.482-18.982s8.802-18.732,19.482-18.732c10.873,0,19.675,7.104,19.675,18.732
		S296.504,410.24,285.631,410.24z M285.631,381.642c-5.468,0-9.052,4.276-9.052,9.616c0,5.469,3.583,9.744,9.052,9.744
		c5.596,0,9.174-4.275,9.174-9.744C294.805,385.918,291.163,381.642,285.631,381.642L285.631,381.642z"/>
	<path d="M327.574,419.391c-8.802,0-16.719-4.462-16.719-13.827c0-5.405,3.647-9.238,7.981-10.623v-0.128
		c-3.834-1.448-6.789-4.712-6.789-9.616c0-8.231,7.289-12.699,15.526-12.699c8.238,0,15.527,4.275,15.527,12.507
		c0,4.904-2.827,8.424-6.789,9.744v0.187c4.731,1.326,7.996,5.646,7.981,10.559C344.3,414.865,336.376,419.391,327.574,419.391z
		 M327.574,399.088c-3.647,0-6.225,2.577-6.225,6.033c0,3.583,2.577,5.91,6.225,5.91s6.161-2.327,6.161-5.91
		c0.047-3.287-2.579-5.989-5.865-6.036C327.771,399.084,327.673,399.085,327.574,399.088z M327.574,380.67
		c-3.141,0-5.282,2.199-5.282,5.091c-0.091,2.825,2.126,5.19,4.951,5.282c0.11,0.003,0.221,0.003,0.331,0
		c2.918,0.032,5.309-2.307,5.341-5.224c0-0.02,0-0.039,0-0.059c-0.04-2.854-2.386-5.133-5.238-5.093
		C327.643,380.668,327.608,380.669,327.574,380.67z"/>
</g>
<g id="图层_10" display="none">
	<path display="inline" d="M285.199,411.24c-10.687,0-19.482-7.354-19.482-18.982s8.802-18.732,19.482-18.732
		c10.873,0,19.675,7.104,19.675,18.732S296.078,411.24,285.199,411.24z M285.199,382.642c-5.469,0-9.052,4.276-9.052,9.616
		c0,5.469,3.583,9.744,9.052,9.744c5.597,0,9.174-4.275,9.174-9.744C294.385,386.918,290.731,382.642,285.199,382.642
		L285.199,382.642z"/>
	<path display="inline" d="M339.72,403.172l-10.75,16.026h-12.758l11.053-15.335l0.128-0.186c-1.015,0.328-2.074,0.497-3.141,0.5
		c-7.796,0-14.643-5.817-14.643-14.544c0-10.122,7.917-16.154,17.539-16.154c9.744,0,17.54,6.16,17.54,15.904
		C344.688,394.684,342.67,398.791,339.72,403.172z M327.213,382.177c-4.212,0-7.039,2.955-7.039,7.167
		c0,4.025,2.763,6.98,6.911,6.98c4.147,0,7.039-2.908,7.039-7.039C334.124,385.445,331.425,382.177,327.213,382.177z"/>
</g>
</svg>
