<svg id="Layer_1" data-name="Layer 1" xmlns="http://www.w3.org/2000/svg" viewBox="0 0 984.53 141.73"><defs><style>.cls-1{fill:#fff;}</style></defs><title>Lynk&amp;amp;co_Logo_White</title><path class="cls-1" d="M514.05,11.76,434.89,99.15c0,14.7,0,29.64,0,44.39h23.46V104.88L475.08,86.4c.74.9,28.54,39.51,41.09,57.1h28l-53.08-74.1C506.21,52.34,540.72,13,541.76,11.76H514.05" transform="translate(-11.08 -6.87)"/><path class="cls-1" d="M34.46,11.76H11.08V143.53H99.2V122.25H34.46V11.76" transform="translate(-11.08 -6.87)"/><path class="cls-1" d="M119.61,11.76c.93,1.63,62.17,93.31,62.16,93.38v38.39h23.83c0-1.38,0-40.18,0-44.58,0,0-59.39-87-59.48-87.19H119.61" transform="translate(-11.08 -6.87)"/><path class="cls-1" d="M357.27,94.8,267.64,6.87V143.53h23.61V60.84l89.85,87.76V11.76H357.27v83" transform="translate(-11.08 -6.87)"/><path class="cls-1" d="M784.11,122a44.13,44.13,0,0,1-38.5-10.78,45.55,45.55,0,0,1-11.86-49.71,45.13,45.13,0,0,1,27.58-26.81,44.1,44.1,0,0,1,42.27,7.83l15.14-17.22a67,67,0,0,0-80-4.89,68.38,68.38,0,0,0,20,123.23,67.12,67.12,0,0,0,69.49-23.49l-17.75-14.52A44.6,44.6,0,0,1,784.11,122" transform="translate(-11.08 -6.87)"/><path class="cls-1" d="M648.21,123.31l16.51-16.5H645.29l-6.46,6.06-17-18.93L625.37,91c4-3.28,7.64-6.31,10.11-11a23.82,23.82,0,0,0,1.77-17.54A24.22,24.22,0,1,0,590.71,76a26,26,0,0,0,2.57,5.82,69.43,69.43,0,0,0,8.5,10.79c-3.73,3-8.5,6.7-11.5,10.44a23.21,23.21,0,0,0-3.77,6.69A25.46,25.46,0,0,0,585,120.59a26.67,26.67,0,0,0,10.63,19.08,30.39,30.39,0,0,0,15.53,6,31.25,31.25,0,0,0,6.9-.11,24.91,24.91,0,0,0,3.86-.81,26.81,26.81,0,0,0,8.17-4.14,70.59,70.59,0,0,0,8.25-7.43c2.87,3.19,6.34,7.14,9.21,10.33h18.8C660.48,137,654,129.8,648.21,123.31Zm-45-58.62a10.53,10.53,0,0,1,3.57-4.84,11.71,11.71,0,0,1,8.07-2.37,11.48,11.48,0,0,1,10.58,10.65c.09,4.39-2.84,7.47-4.44,9-.92.87-1.87,1.65-2.79,2.38l-5.5,4.37a87.72,87.72,0,0,1-7.38-8.77C603.44,72.2,602,68.53,603.25,64.69Zm23.91,59.11a50.83,50.83,0,0,1-5.75,4.78,19.76,19.76,0,0,1-2.62,1.53,14.08,14.08,0,0,1-1.65.67,11,11,0,0,1-3.47.58,15,15,0,0,1-6.06-1.22,13.22,13.22,0,0,1-8.15-10.7,11.29,11.29,0,0,1,.66-5.19,12.7,12.7,0,0,1,1.33-2.58c1.93-2.9,5.08-5.25,9.52-8.87l17.66,19.64Z" transform="translate(-11.08 -6.87)"/><path class="cls-1" d="M887.51,86H864.33a69.05,69.05,0,0,0,20.17,41.18,66.26,66.26,0,0,0,15.39,11.23,63.94,63.94,0,0,0,65.28-3.33,68.26,68.26,0,0,0,27.51-37.32A69.88,69.88,0,0,0,980,33.63a64.27,64.27,0,0,0-95.15-5.83l17.92,14.66A41.21,41.21,0,0,1,936.52,33a42,42,0,0,1,22.13,11.25,46.71,46.71,0,0,1-2.84,69.34,41.64,41.64,0,0,1-18.86,8.68A41.07,41.07,0,0,1,914.62,120C900.59,114.44,890.25,101.39,887.51,86Z" transform="translate(-11.08 -6.87)"/></svg>